<svg width="93" height="270" viewBox="0 0 93 270" fill="none" xmlns="http://www.w3.org/2000/svg">
<path d="M79.1677 49.6039C76.5378 46.6086 75.1252 44.4783 74.3407 42.9561C73.8743 42.0505 74.1587 38.7626 73.9235 37.2614C73.8032 36.4683 73.7149 35.8977 73.7149 35.8977C73.5969 35.2763 73.0641 32.8845 75.3525 32.7478C76.8159 32.6534 78.152 33.5628 78.4043 35.0038L79.1638 39.1146C79.2114 39.4027 79.4122 40.7344 80.0185 40.7032C80.4014 40.6837 80.6967 40.5229 80.928 40.2535C82.2015 38.7743 81.1874 34.0819 81.1874 34.0819L79.4716 26.6761C79.1294 25.4248 79.52 23.627 81.3092 23.1789L81.3085 23.1657C81.2444 22.951 81.2085 22.6419 81.2061 22.332C81.1936 21.9557 81.2202 21.5779 81.2874 21.3296C81.5327 20.4319 82.2484 19.688 83.2281 19.446C84.6267 19.1166 86.0221 20.0229 86.4167 21.4038L86.7956 22.7262L86.9159 23.143C86.9159 23.143 87.1597 23.3881 87.5504 23.7777C88.895 25.1094 91.0342 27.1188 92.1078 28.445C92.5664 29.0094 93.2016 29.285 92.9375 31.1546L92.0226 36.8797C92.0226 36.8797 92.6109 39.4573 92.5336 41.8281C92.4015 45.8639 91.6265 51.329 91.6265 51.329C91.6265 51.329 88.802 52.6288 84.1087 51.8934C80.8928 51.3892 79.1677 49.6039 79.1677 49.6039Z" fill="#FF8E6E"/>
<path d="M81.3672 23.1625L82.7282 27.7885L82.7306 27.7986C82.9962 29.1569 83.2103 30.5246 83.4423 31.8891L83.4431 31.8977L83.6994 35.3371C83.7017 35.3683 83.6783 35.3949 83.6471 35.3972C83.6236 35.3988 83.6033 35.3863 83.5931 35.3675L83.5822 35.3472C83.2931 34.7946 83.1009 34.2341 82.915 33.6728C82.736 33.1108 82.5985 32.5456 82.4704 31.9796L82.4805 32.06C82.3774 31.7267 82.2954 31.3903 82.2016 31.0554C82.1008 30.7221 82.0461 30.3801 81.9711 30.0421C81.8117 29.3677 81.7328 28.6792 81.6281 27.9946L81.6508 28.0937L81.4242 26.9048C81.3633 26.5043 81.3148 26.1008 81.2672 25.6964C81.2015 24.8799 81.1586 24.0563 81.2531 23.1945L81.2555 23.1726C81.2586 23.1414 81.2867 23.1195 81.318 23.1227C81.3422 23.125 81.3609 23.1414 81.3672 23.1625Z" fill="#CE6042"/>
<path d="M88.9925 36.2239C87.9791 36.0928 86.9658 35.9499 85.9477 35.8976C85.4399 35.8594 84.9312 35.8391 84.4249 35.8547C83.9233 35.8828 83.4069 35.9226 82.9584 36.1287C82.9311 36.1412 82.8983 36.1295 82.8858 36.1022C82.8787 36.0866 82.8795 36.0694 82.8865 36.0553L82.8998 36.028C83.2069 35.3996 83.846 35.0991 84.3773 34.9266C84.9312 34.7431 85.486 34.7166 86.0259 34.7298C86.2923 34.7673 86.5603 34.7931 86.822 34.8501C87.0814 34.9305 87.3424 34.9804 87.5916 35.1045C88.0948 35.3161 88.5815 35.6088 89.0152 36.1084L89.0402 36.1365C89.0589 36.1584 89.0566 36.1919 89.0347 36.2107C89.0222 36.2224 89.0066 36.2263 88.9925 36.2239Z" fill="#CE6042"/>
<path d="M80.0212 40.6446C80.6502 40.2723 81.3635 40.22 82.0557 40.3745C82.7558 40.519 83.4277 40.9577 83.9035 41.5736C84.345 42.2059 84.606 42.9732 84.5278 43.6844C84.5325 44.0404 84.3973 44.3737 84.3036 44.6937C84.1465 45.0044 83.9778 45.2987 83.7324 45.5579L83.7113 45.5805C83.6902 45.6024 83.6559 45.6032 83.634 45.5829C83.6215 45.5712 83.616 45.5556 83.6168 45.5399L83.6692 44.6774C83.6434 44.3924 83.6699 44.102 83.6051 43.8233C83.5348 43.2558 83.2957 42.7258 82.966 42.2754C82.6394 41.8187 82.1792 41.4612 81.6643 41.2184C81.1479 40.9827 80.5845 40.8218 80.0173 40.7625C79.9868 40.7594 79.9649 40.7321 79.9681 40.7024C79.9696 40.6844 79.9806 40.6696 79.9946 40.661L80.0212 40.6446Z" fill="#CE6042"/>
<path d="M87.6661 35.7939C87.4973 34.9032 87.4207 34.025 87.3996 33.1538C87.3731 32.7159 87.3934 32.285 87.3926 31.8509C87.3864 31.4161 87.4286 30.9876 87.4489 30.5559L87.6692 31.3084C87.0824 30.7292 86.5738 30.0953 86.0433 29.4685C85.5456 28.8073 85.0432 28.1859 84.6025 27.3967C84.4877 27.2086 84.3517 26.9267 84.2635 26.6567C84.1916 26.3819 84.1533 26.1079 84.1517 25.8409C84.1439 25.307 84.2611 24.791 84.5064 24.3374C84.7362 23.8815 85.1057 23.4904 85.5472 23.257C85.9902 23.0205 86.491 22.9807 86.9129 23.0845L86.9324 23.0892C86.9629 23.097 86.9816 23.1275 86.9738 23.1579C86.9676 23.1829 86.9465 23.2001 86.9223 23.2008C86.1199 23.2477 85.43 23.8324 85.1901 24.5841C84.9362 25.3226 85.0026 26.1898 85.4753 26.8229C85.93 27.4818 86.4449 28.1102 86.9535 28.7362L88.4841 30.6183C88.5021 30.6394 88.5099 30.6698 88.5068 30.6956L87.7817 35.8079C87.777 35.8391 87.7481 35.861 87.7169 35.8563C87.6919 35.8524 87.6731 35.8337 87.6684 35.8103L87.6661 35.7939Z" fill="#CE6042"/>
<path d="M92.0498 67.5263C91.7685 74.0679 91.6045 81.96 88.0573 87.7054C84.768 93.0293 77.8534 94.8247 72.2826 92.0691C68.9855 90.4376 66.1571 87.6586 63.5632 85.0981C61.4927 83.0529 59.5707 81.0467 57.7424 78.9702C54.0859 74.8095 51.1403 70.2897 47.7963 65.8323C41.6239 57.5733 39.0612 43.9358 45.5852 44.1622C55.4063 44.4979 62.0318 47.4642 65.829 50.8912L65.9384 50.9927C69.0089 53.7717 71.8373 56.8317 74.5328 59.9386C75.6266 57.2533 76.7752 54.5601 78.0409 51.8904C79.4863 52.8583 81.799 53.5765 84.182 53.8732C87.2447 54.2557 90.4012 54.0371 91.8545 53.5921C92.2451 58.2751 92.2451 62.8816 92.0498 67.5263Z" fill="#F26419"/>
<path d="M74.5714 59.955C73.7456 61.8878 72.9666 63.8417 72.2361 65.8112C71.4876 67.7745 70.7797 69.7557 70.2328 71.7845C70.2274 71.8048 70.2063 71.8173 70.1852 71.8119C70.168 71.8072 70.1562 71.7916 70.1562 71.7744V71.7658C70.1844 69.5887 70.7813 67.5208 71.504 65.5372C71.8915 64.5521 72.2963 63.5747 72.8049 62.6419L73.5792 61.2492C73.8839 60.8058 74.1495 60.3461 74.498 59.9237L74.5043 59.9159C74.5175 59.8995 74.5418 59.8972 74.5582 59.9105C74.5746 59.9214 74.5777 59.9394 74.5714 59.955Z" fill="#B03B09"/>
<path d="M92.8902 53.3602C92.8902 52.4094 92.8925 51.3727 92.6261 51.1011C92.3503 50.8193 91.7002 50.792 91.7002 50.792L91.6494 51.169C90.6704 51.3368 88.5468 51.82 85.0817 51.3891C81.0752 50.8903 78.7836 49.0207 78.664 49.0238C78.1226 49.0387 77.6108 49.913 77.2123 50.8482C76.7311 51.9785 76.749 52.9215 76.9084 53.1565C77.9366 54.674 81.0041 55.8145 84.184 56.2134C88.1031 56.7052 92.1768 56.204 92.6347 55.5171C92.9277 55.0791 92.8902 54.2798 92.8902 53.3602Z" fill="#B03B09"/>
<path d="M68.5555 154.16L44.3192 156.658L13.4964 151.529C13.0589 143.255 12.5979 134.879 12.2073 128.056C11.6369 117.986 13.2386 107.908 16.9186 98.517L19.6844 91.4524C19.6844 91.4524 39.6626 95.0823 66.1959 93.0058L68.0633 112.311C68.0633 112.311 68.4695 134.067 68.5555 154.16Z" fill="#6B2231"/>
<path d="M44.2643 156.657L44.2432 134.599L44.2908 112.541V112.458H44.3736L55.9074 112.482V112.599C53.9853 112.785 52.0625 112.88 50.1405 113.011C48.2185 113.154 46.2957 113.181 44.3736 113.272L45.1042 112.542C45.2847 116.219 45.3073 119.895 45.3479 123.572L45.405 129.086L45.3268 134.601L45.2487 140.115C45.2089 141.953 45.1096 143.791 45.0432 145.629C44.9167 149.305 44.694 152.981 44.3807 156.657H44.2643Z" fill="#601222"/>
<path d="M68.3208 181.021C67.6645 198.39 62.4453 250.309 62.4453 250.309L43.1156 250.302C43.1156 250.302 42.2562 241.918 41.2796 231.356C39.7169 241.933 38.3262 250.302 38.3262 250.302L18.9887 250.333C18.9887 250.333 15.34 198.375 14.8321 181.021C14.629 174.23 14.0899 162.965 13.4961 151.529L44.3189 156.658L68.5552 154.16C68.602 164.698 68.5552 174.776 68.3208 181.021Z" fill="#FF8E6E"/>
<path d="M40.7178 234.746C42.0421 225.831 43.3024 216.903 44.3157 207.948C44.5642 205.709 44.804 203.469 44.9994 201.225C45.0986 200.103 45.1923 198.98 45.2666 197.857C45.3588 196.731 45.3931 195.617 45.3517 194.492C45.1814 189.995 44.6986 185.508 44.2009 181.032L44.2001 181.026V181.021L44.2642 156.657H44.3813C44.5165 158.688 44.6056 160.718 44.6931 162.748C44.7822 164.779 44.8876 166.809 44.9267 168.84L45.09 174.931C45.1416 176.961 45.2142 178.992 45.2142 181.022L45.208 180.912C45.7557 185.411 46.2877 189.876 46.5104 194.457C46.5768 195.593 46.5159 196.834 46.4128 197.937C46.3253 199.069 46.2198 200.197 46.1073 201.324C45.8862 203.577 45.6221 205.822 45.3494 208.064C44.8329 212.553 44.0876 217.008 43.3563 221.46L42.7968 224.797L42.1663 228.123C41.7421 230.34 41.3194 232.556 40.8334 234.762L40.7178 234.746Z" fill="#CE6042"/>
<path d="M38.3626 250.284V267.004H10.5518C10.6057 266.788 10.694 266.586 10.8151 266.397C12.1456 264.264 13.6512 262.254 14.7927 260.02C15.4881 258.665 17.5617 254.595 17.5617 254.595L19.0071 250.284H38.3626Z" fill="#F26419"/>
<path d="M38.3622 267.004V268.05C38.3622 269.13 37.491 270 36.4175 270H12.8203C11.4085 270 10.5717 268.948 10.4771 267.834C10.4568 267.557 10.4771 267.274 10.5514 267.004H38.3622Z" fill="#FFEBDB"/>
<path d="M43.085 250.284V266.937H91.4474C91.4404 265.817 90.8325 264.69 89.4957 264.191L74.7594 258.974L62.4412 250.297L43.085 250.284Z" fill="#F26419"/>
<path d="M43.085 266.937V270H88.455C90.2512 270 91.3255 268.65 91.4333 267.233C91.4404 267.132 91.4466 267.038 91.4466 266.937H43.085Z" fill="#FFEBDB"/>
<path d="M66.1962 93.0057L66.0399 91.4132L64.0695 71.0303C64.0695 71.0303 67.4986 66.0827 67.4283 64.1764C67.2713 59.9119 61.2442 53.5997 57.8182 50.0627C54.2413 46.3712 49.2362 44.0683 43.7178 44.0683H34.9359C31.334 44.0683 21.3629 44.3782 18.4487 46.08C11.2528 50.311 14.4265 59.5793 16.1375 67.7525L19.6613 91.2961L19.6847 91.4522C16.111 93.0759 14.964 99.4037 14.964 99.4037C14.964 99.4037 45.5781 107.924 68.5722 102.642C68.5722 102.642 69.4222 96.6629 66.1962 93.0057Z" fill="#F26419"/>
<path d="M13.4388 104.949C12.7075 102.53 14.964 99.4037 14.964 99.4037C15.2648 99.4872 46.4368 107.727 68.5721 102.642C68.5721 102.642 70.1777 106.249 69.2222 107.745C67.6517 110.203 54.0006 110.98 39.5261 109.892C26.2406 108.894 13.8295 106.243 13.4388 104.949Z" fill="#B03B09"/>
<path d="M64.8462 79.4767L64.0102 71.0358C64.0086 71.0218 64.0133 71.0077 64.0203 70.9968C65.1696 69.2646 66.2932 67.4832 67.0518 65.5504C67.2175 65.0633 67.38 64.5629 67.3362 64.0563C67.3003 63.8018 67.2862 63.5442 67.2362 63.2912L67.0456 62.5403C66.7252 61.5543 66.2549 60.6223 65.7369 59.7214C64.661 57.9393 63.3843 56.2797 62.0272 54.6973C60.6732 53.1103 59.2395 51.5912 57.7894 50.0893C57.7745 50.0737 57.7745 50.0495 57.7901 50.0339C57.805 50.0198 57.83 50.0214 57.8456 50.0347C59.4356 51.4 60.9865 52.8176 62.4139 54.3656C63.1343 55.1329 63.8359 55.9221 64.5086 56.7426C65.1712 57.57 65.7728 58.4522 66.3478 59.3592C66.8995 60.2843 67.4097 61.2491 67.773 62.3123L67.9964 63.1382C68.0597 63.4193 68.0792 63.719 68.1097 64.0102C68.1519 64.6917 67.9386 65.292 67.7542 65.808C67.3417 66.8462 66.826 67.7798 66.283 68.6955C65.7322 69.6057 65.1743 70.4964 64.5243 71.3449L64.6204 70.9765L64.843 75.2161C64.868 76.6337 64.9391 78.0474 64.9235 79.4689V79.4728C64.9235 79.4939 64.9055 79.5118 64.8845 79.5111C64.8641 79.5111 64.8477 79.4962 64.8462 79.4767Z" fill="#B03B09"/>
<path d="M41.6198 77.9654C37.6921 76.3877 31.6565 74.1778 27.7749 72.7586C27.0006 72.4667 26.2326 72.1833 25.4708 71.9007C25.6216 71.704 25.7693 71.5096 25.9232 71.3113C26.4865 70.5565 27.0733 69.7946 27.678 69.0343C30.3931 65.5355 33.6511 61.9462 33.6465 57.2538C33.6433 54.0002 32.2565 50.8449 29.8587 48.6428C25.0934 44.265 17.6796 44.5757 13.298 49.3368C12.8011 49.8762 12.4581 50.2829 12.0541 50.7481L10.9267 52.122C10.1915 53.0463 9.48048 53.9901 8.77652 54.951C8.0874 55.9229 7.4061 56.9127 6.73105 57.9299C6.07162 58.958 5.42469 60.0196 4.78089 61.1258C4.1285 62.2303 3.5222 63.406 2.90887 64.6807C0.975123 68.6994 -0.547656 73.2449 0.189121 77.7538C1.51891 85.8887 9.91021 88.6217 16.992 89.7411C19.3836 90.1189 21.6768 90.4124 23.9684 90.5834C28.5523 90.9589 32.9839 91.0752 37.6054 90.834L41.6198 77.9654Z" fill="#F26419"/>
<path d="M24.9022 71.5657C24.3873 70.6149 23.3357 70.0287 22.27 69.9061C21.1941 69.7485 20.1026 69.9662 19.0634 70.2652C18.0196 70.5744 16.9953 70.9522 16.0163 71.4268C15.0389 71.8975 14.0873 72.4463 13.2364 73.1083L13.1716 72.9795C15.1967 72.5462 17.236 72.1848 19.29 71.9217C20.3167 71.7929 21.348 71.6891 22.384 71.6477C23.4161 71.6126 24.4662 71.604 25.4811 71.864C25.5015 71.8694 25.514 71.8905 25.5093 71.9108C25.5046 71.9295 25.4858 71.942 25.4671 71.9397L25.46 71.9389C24.4365 71.8187 23.4161 71.896 22.4004 72.0287C21.3855 72.1559 20.3714 72.2949 19.3635 72.4861C18.3564 72.6805 17.3508 72.8834 16.3414 73.0661C15.3366 73.2636 14.3256 73.4783 13.338 73.714C12.9739 73.8007 12.609 73.5766 12.5215 73.2129C12.4606 72.9576 12.5536 72.7008 12.7403 72.5408L12.7473 72.5353C13.6786 71.743 14.6693 71.2496 15.7038 70.7711C16.7359 70.316 17.7923 69.9108 18.8916 69.6743C19.9893 69.4331 21.1714 69.2535 22.3293 69.4948C23.4669 69.7367 24.5748 70.4596 24.9725 71.5345C24.9803 71.5548 24.9694 71.5775 24.9491 71.5845C24.9327 71.5915 24.9116 71.5829 24.9022 71.5657Z" fill="#B03B09"/>
<path d="M41.6057 78.0021L25.4435 71.9749C25.4029 71.96 25.3826 71.9156 25.3974 71.875L25.4091 71.8539L28.0297 68.4753C28.9133 67.3567 29.8079 66.2482 30.6314 65.0882C31.4549 63.9298 32.1917 62.705 32.7433 61.3959C33.2832 60.0844 33.5965 58.6754 33.6075 57.2554C33.6075 57.2336 33.6254 57.2164 33.6465 57.2172C33.6668 57.2172 33.6832 57.2359 33.6856 57.2554C33.8278 58.6894 33.577 60.1609 33.1246 61.552C32.6214 62.9282 31.9128 64.2202 31.1284 65.4371C30.3572 66.6682 29.4423 67.7806 28.5891 68.9148L26.0287 72.3293L25.7154 71.2434L29.7345 72.8102C31.0698 73.3449 32.4214 73.8351 33.7395 74.4167L37.7117 76.1083C39.0188 76.7172 40.3416 77.2839 41.6331 77.9295C41.6534 77.9373 41.6636 77.9599 41.6558 77.9802C41.6487 77.9982 41.6253 78.0068 41.6057 78.0021Z" fill="#B03B09"/>
<path d="M16.9971 89.7028C18.6995 89.9651 20.4075 90.193 22.1217 90.3616C23.8351 90.5248 25.5555 90.6411 27.2744 90.7317C30.7122 90.9315 34.1617 90.9643 37.6026 90.7957C37.6237 90.7949 37.6424 90.8113 37.6432 90.8324C37.644 90.8511 37.6307 90.8683 37.6128 90.8722L37.6065 90.8737C36.7533 91.0673 35.8923 91.1657 35.0305 91.2976C34.1672 91.3835 33.3023 91.4491 32.435 91.51C30.7013 91.6091 28.966 91.5521 27.2315 91.51C25.5001 91.3562 23.7812 91.2437 22.0592 90.9635C21.2021 90.8144 20.3481 90.6559 19.4996 90.4748C18.6573 90.2516 17.812 90.0619 16.9838 89.7801L16.9775 89.7777C16.9572 89.7707 16.9463 89.7488 16.9533 89.7286C16.9603 89.7106 16.9791 89.6997 16.9971 89.7028Z" fill="#B03B09"/>
<path d="M29.5059 90.8645C29.5059 90.8645 41.2146 90.5655 41.2935 74.7204H62.7148C62.7148 74.7204 66.6424 82.568 67.7253 85.7818C68.791 88.9434 71.642 97.9393 66.1627 99.0938C58.2738 100.755 36.8814 99.3257 35.3712 98.3866C32.2311 96.4327 29.5059 90.8645 29.5059 90.8645Z" fill="#B03B09"/>
<path d="M34.1465 44.0754C34.4356 44.0675 34.7012 44.0676 34.9356 44.0676H43.7176C45.9365 44.0676 48.0773 44.4422 50.0696 45.137C50.0696 45.137 51.1385 51.2017 50.0696 53.6146L34.1465 44.0754Z" fill="#FF8E6E"/>
<path d="M32.257 25.5933C32.257 25.5933 30.1201 33.1185 22.3438 33.1185C22.3438 33.1185 27.1176 36.3128 32.2219 36.0544C30.8491 37.3979 29.0427 38.7749 26.6808 39.8811C26.6808 39.8811 38.0575 41.6281 41.3984 33.3823L32.257 25.5933Z" fill="#6B2231"/>
<path d="M55.0504 28.6752C55.0504 28.6752 55.688 36.4713 63.3175 37.9763C63.3175 37.9763 58.0147 40.1863 53.0573 38.9451C54.1433 40.5282 55.6489 42.2292 57.7514 43.7709C57.7514 43.7709 46.2521 43.2838 44.5723 34.547L55.0504 28.6752Z" fill="#6B2231"/>
<path d="M47.4922 42.1185C47.4922 42.1185 49.5681 40.5049 51.1964 41.0584C52.734 41.5806 53.0051 43.6594 53.0051 43.6594C53.0051 43.6594 55.7085 42.8249 56.5812 43.7843C58.0751 45.4268 55.8827 48.9536 50.0729 53.6124C50.0729 53.6124 51.0956 49.4025 47.4922 42.1185Z" fill="#F26419"/>
<path d="M56.8887 45.9998C56.7887 46.8873 56.4098 47.7343 55.9347 48.4767C55.4667 49.2331 54.8948 49.9076 54.2908 50.5414C53.0587 51.785 51.6758 52.8615 50.0905 53.6358L50.085 53.6382C50.071 53.6452 50.053 53.639 50.046 53.6249C50.0397 53.6124 50.0436 53.5984 50.0538 53.5898C51.3851 52.5039 52.6806 51.3705 53.8705 50.134C54.4713 49.5219 55.0464 48.8842 55.5644 48.2011C56.0801 47.5189 56.5488 46.7898 56.8325 45.9818C56.8379 45.967 56.8543 45.9592 56.8692 45.9639C56.8825 45.9685 56.8903 45.981 56.8887 45.9943V45.9998Z" fill="#B03B09"/>
<path d="M53.0438 43.6547C53.3774 44.3315 53.468 45.0645 53.4876 45.7772C53.5102 46.4954 53.4079 47.2011 53.2665 47.8935C52.9344 49.2651 52.3922 50.589 51.4061 51.6834L51.3968 51.6936C51.3827 51.7092 51.3593 51.71 51.3436 51.6967C51.3319 51.6858 51.328 51.6694 51.3335 51.6553C51.814 50.372 52.214 49.0582 52.5055 47.7218C52.6609 47.0559 52.793 46.3845 52.8789 45.7062C52.9594 45.0294 53.018 44.3409 52.9672 43.6649C52.9656 43.6438 52.9813 43.625 53.0024 43.6235C53.0188 43.6219 53.0328 43.6313 53.0399 43.6446L53.0438 43.6547Z" fill="#B03B09"/>
<path d="M48.5434 46.3501L35.4424 44.2283L38.2121 30.1966L50.3506 32.1614L48.5434 46.3501Z" fill="#FF8E6E"/>
<path d="M48.5434 46.3501L35.4424 44.2283L38.2121 30.1966L50.3506 32.1614L48.5434 46.3501Z" fill="black"/>
<path d="M52.0619 30.7578L50.4055 43.763C49.6867 43.8645 48.9444 43.9113 48.2022 43.9113C43.0065 43.9113 38.342 41.507 35.2793 37.76L37.1388 28.3379L52.0619 30.7578Z" fill="#CE6042"/>
<path d="M26.5727 25.7713C28.765 28.1093 32.2122 28.4411 34.2733 26.5129C36.3336 24.584 36.2274 21.1258 34.035 18.7871C31.8426 16.4491 28.3955 16.1174 26.3344 18.0455C24.2741 19.9744 24.3811 23.4334 26.5727 25.7713Z" fill="#FF8E6E"/>
<path d="M27.6045 19.8823C27.6045 19.8823 32.1822 19.4342 32.783 24.1867L27.6045 19.8823Z" fill="#CE6042"/>
<path d="M65.337 25.7713C63.1447 28.1093 59.6975 28.4411 57.6364 26.5129C55.5761 24.584 55.6824 21.1258 57.8747 18.7871C60.0671 16.4491 63.5142 16.1174 65.5753 18.0455C67.6357 19.9744 67.5294 23.4334 65.337 25.7713Z" fill="#FF8E6E"/>
<path d="M64.3055 19.8823C64.3055 19.8823 59.7278 19.4342 59.127 24.1867L64.3055 19.8823Z" fill="#CE6042"/>
<path d="M45.955 40.0358C38.4833 40.0358 32.3711 33.9282 32.3711 26.4638V14.9106C32.3711 7.44548 38.4841 1.33865 45.955 1.33865C53.4267 1.33865 59.5389 7.44626 59.5389 14.9106V26.4638C59.5389 33.9282 53.4259 40.0358 45.955 40.0358Z" fill="#FF8E6E"/>
<path d="M40.4899 21.6793C40.0336 21.6793 39.6602 21.3062 39.6602 20.8503V17.8722C39.6602 17.4163 40.0336 17.0432 40.4899 17.0432C40.9462 17.0432 41.3197 17.4163 41.3197 17.8722V20.8503C41.3197 21.3062 40.9462 21.6793 40.4899 21.6793Z" fill="#601222"/>
<path d="M51.4206 21.6793C50.9643 21.6793 50.5908 21.3062 50.5908 20.8503V17.8722C50.5908 17.4163 50.9643 17.0432 51.4206 17.0432C51.8769 17.0432 52.2503 17.4163 52.2503 17.8722V20.8503C52.2503 21.3062 51.8769 21.6793 51.4206 21.6793Z" fill="#601222"/>
<path d="M47.4903 19.8714C47.4903 19.8714 47.0082 22.8183 48.7911 24.1875L47.2129 25.7651" stroke="#CE6042" stroke-miterlimit="10" stroke-linecap="round" stroke-linejoin="round"/>
<path d="M50.7818 28.3701C50.7818 31.0335 48.6207 33.1928 45.9549 33.1928C43.289 33.1928 41.1279 31.0335 41.1279 28.3701H50.7818Z" fill="#FFEBDB"/>
<path d="M32.3704 17.5076C32.3704 17.5076 52.4079 14.5475 50.6445 8.21976C50.6445 8.21976 53.0408 12.5046 50.2132 14.3984C50.2132 14.3984 55.3003 14.6974 54.1034 8.7178C54.1034 8.7178 58.9319 11.1495 59.5389 17.5076C59.5389 17.5076 61.2938 12.2056 59.5389 7.67176C58.4545 4.86932 55.455 5.23387 55.455 5.23387C55.455 5.23387 54.3112 -1.19691 45.2847 0.198066C39.8452 1.0388 29.4803 5.91849 32.3704 17.5076Z" fill="#6B2231"/>
<path d="M27.4854 44.351C27.4854 44.351 28.2174 41.6665 29.6144 40.6641C30.9333 39.7172 32.7842 40.704 32.7842 40.704C32.7842 40.704 32.6084 37.8796 34.9625 37.8679C37.7799 37.8547 48.3276 45.2925 50.0731 53.6131C50.0731 53.6131 37.7619 46.1972 27.4854 44.351Z" fill="#F26419"/>
<path d="M33.1384 40.9045C34.5002 41.2581 35.8222 41.7405 37.1121 42.2963C38.4005 42.8568 39.6482 43.511 40.8421 44.2534C42.0383 44.9942 43.1399 45.8794 44.1728 46.8294C45.212 47.7802 46.0902 48.8871 46.8887 50.0417C46.9004 50.0589 46.8965 50.0831 46.8793 50.0948C46.8644 50.1049 46.8457 50.1034 46.8324 50.0924L46.823 50.0846C46.273 49.6123 45.8644 49.0573 45.3049 48.6288C44.8104 48.1479 44.2775 47.7146 43.7517 47.279C42.6743 46.4407 41.5945 45.6163 40.4241 44.9122C39.2779 44.1729 38.0778 43.5164 36.8676 42.8506C36.2613 42.5196 35.6425 42.2073 35.0127 41.9123C34.3986 41.5719 33.7564 41.3018 33.1196 40.9802L33.111 40.9755C33.0923 40.9661 33.0844 40.9427 33.0938 40.924C33.1024 40.9076 33.1212 40.8998 33.1384 40.9045Z" fill="#B03B09"/>
<path d="M50.0582 53.6374L44.5015 51.0543C42.649 50.2089 40.8091 49.3424 38.9292 48.5712C37.0752 47.739 35.1797 47.0162 33.2827 46.2894C32.3271 45.9506 31.377 45.5837 30.4028 45.2957C29.4456 44.9358 28.4573 44.7024 27.4791 44.3792L27.4752 44.3777C27.4596 44.373 27.4517 44.3558 27.4564 44.341C27.4611 44.3269 27.4752 44.3191 27.4892 44.3214C29.5003 44.6985 31.4771 45.2332 33.4249 45.8577C35.3641 46.5072 37.2752 47.2386 39.1589 48.0333C42.9069 49.6695 46.5626 51.5141 50.0871 53.5867C50.1012 53.5945 50.1059 53.6124 50.0973 53.6265C50.091 53.6405 50.0715 53.6437 50.0582 53.6374Z" fill="#B03B09"/>
</svg>
