<svg width="75" height="75" viewBox="0 0 75 75" fill="none" xmlns="http://www.w3.org/2000/svg">
<path fill-rule="evenodd" clip-rule="evenodd" d="M20.8336 16.163C22.3753 15.1329 24.1879 14.5831 26.0421 14.5831C27.2325 14.5831 28.1976 15.5481 28.1976 16.7386C28.1976 17.929 27.2325 18.8941 26.0421 18.8941C25.0405 18.8941 24.0614 19.1911 23.2287 19.7475C22.3959 20.3039 21.7468 21.0948 21.3635 22.0202C20.9803 22.9455 20.88 23.9637 21.0754 24.946C21.2708 25.9283 21.7531 26.8306 22.4613 27.5389C23.1695 28.2471 24.0718 28.7294 25.0541 28.9248C26.0365 29.1202 27.0547 29.0199 27.98 28.6366C28.9053 28.2533 29.6962 27.6042 30.2526 26.7715C30.8091 25.9387 31.1061 24.9596 31.1061 23.9581C31.1061 22.7676 32.0711 21.8026 33.2616 21.8026C34.452 21.8026 35.4171 22.7676 35.4171 23.9581C35.4171 25.8123 34.8672 27.6248 33.8371 29.1665C32.807 30.7083 31.3428 31.9099 29.6297 32.6194C27.9167 33.329 26.0317 33.5147 24.2131 33.1529C22.3945 32.7912 20.7241 31.8983 19.4129 30.5872C18.1018 29.2761 17.2089 27.6056 16.8472 25.787C16.4855 23.9685 16.6711 22.0835 17.3807 20.3704C18.0903 18.6574 19.2919 17.1932 20.8336 16.163Z" fill="#8D98AA"/>
<path fill-rule="evenodd" clip-rule="evenodd" d="M72.8756 27.0833C74.0489 27.0833 75 28.0543 75 29.252V47.4112C75 56.7008 73.2032 63.7678 68.6331 68.4591C64.0601 73.1534 57.1682 75 48.1125 75H26.8875C17.8347 75 10.9429 73.1541 6.36924 68.4604C1.79839 63.7695 0 56.7026 0 47.4112V40.11C0 38.9122 0.951165 37.9413 2.12449 37.9413C3.29781 37.9413 4.24897 38.9122 4.24897 40.11V47.4112C4.24897 56.2791 5.99139 61.9222 9.3817 65.4016C12.7692 68.878 18.259 70.6626 26.8875 70.6626H48.1125C56.7439 70.6626 62.2335 68.8773 65.6203 65.4007C69.0099 61.9211 70.7511 56.278 70.7511 47.4112V29.252C70.7511 28.0543 71.7022 27.0833 72.8756 27.0833Z" fill="#8D98AA"/>
<path fill-rule="evenodd" clip-rule="evenodd" d="M6.45765 6.40682C11.0921 1.80882 18.0756 0 27.2556 0H41.6075C42.7908 0 43.75 0.951684 43.75 2.12564C43.75 3.29961 42.7908 4.25129 41.6075 4.25129H27.2556C18.4984 4.25129 12.9254 6.00222 9.48761 9.41294C6.04983 12.8237 4.28502 18.3528 4.28502 27.041C4.28502 28.215 3.32578 29.1667 2.14251 29.1667C0.959234 29.1667 0 28.215 0 27.041C0 17.9334 1.82317 11.0048 6.45765 6.40682Z" fill="#8D98AA"/>
<path fill-rule="evenodd" clip-rule="evenodd" d="M47.9165 12.4999C47.9165 11.3493 48.9149 10.4166 50.1465 10.4166H70.6864C71.9181 10.4166 72.9165 11.3493 72.9165 12.4999C72.9165 13.6505 71.9181 14.5833 70.6864 14.5833H50.1465C48.9149 14.5833 47.9165 13.6505 47.9165 12.4999Z" fill="#8D98AA"/>
<path fill-rule="evenodd" clip-rule="evenodd" d="M60.4166 6.12579e-05C61.5672 6.12579e-05 62.4999 0.998475 62.4999 2.23008V22.7701C62.4999 24.0017 61.5672 25.0001 60.4166 25.0001C59.266 25.0001 58.3332 24.0017 58.3332 22.7701V2.23008C58.3332 0.998475 59.266 6.12579e-05 60.4166 6.12579e-05Z" fill="#8D98AA"/>
<path fill-rule="evenodd" clip-rule="evenodd" d="M58.4367 40.9895L43.6923 53.7529L43.6531 53.786C41.8605 55.2639 39.6114 56.0719 37.2902 56.0719C34.9689 56.0719 32.7198 55.2639 30.9272 53.786C30.9079 53.7701 30.8889 53.7538 30.8701 53.7372L29.7319 52.7295C28.7788 51.9604 27.6081 51.5111 26.3855 51.4458C25.1554 51.38 23.9362 51.7064 22.9028 52.3778L5.41078 64.2169C4.43441 64.8777 3.10834 64.6203 2.44891 63.6418C1.78948 62.6633 2.04642 61.3344 3.02279 60.6736L20.5586 48.8049C22.353 47.632 24.4734 47.0618 26.6127 47.1761C28.7521 47.2904 30.7997 48.0837 32.4595 49.4412C32.4811 49.4588 32.5023 49.4769 32.5231 49.4953L33.6647 50.5061C34.6892 51.3404 35.9693 51.7962 37.2902 51.7962C38.6146 51.7962 39.8982 51.3379 40.9241 50.4991L55.6686 37.7357L55.7077 37.7026C57.5003 36.2247 59.7494 35.4166 62.0707 35.4166C64.3919 35.4166 66.641 36.2247 68.4336 37.7026L68.4728 37.7357L74.2612 42.7469C75.1528 43.5187 75.2512 44.8688 74.481 45.7622C73.7107 46.6557 72.3636 46.7543 71.472 45.9824L65.7046 40.9894C64.6787 40.1507 63.3951 39.6924 62.0707 39.6924C60.7462 39.6924 59.4626 40.1507 58.4367 40.9895Z" fill="#8D98AA"/>
</svg>
