<svg width="52" height="48" viewBox="0 0 52 48" fill="none" xmlns="http://www.w3.org/2000/svg">
<path d="M25.75 6C29.2906 6 32.1875 8.7 32.1875 12C32.1875 15.3 29.2906 18 25.75 18C22.2094 18 19.3125 15.3 19.3125 12C19.3125 8.7 22.2094 6 25.75 6ZM25.75 36C34.4406 36 44.4187 39.87 45.0625 42H6.4375C7.17781 39.84 17.0916 36 25.75 36ZM25.75 0C18.6366 0 12.875 5.37 12.875 12C12.875 18.63 18.6366 24 25.75 24C32.8634 24 38.625 18.63 38.625 12C38.625 5.37 32.8634 0 25.75 0ZM25.75 30C17.1559 30 0 34.02 0 42V48H51.5V42C51.5 34.02 34.3441 30 25.75 30Z" fill="#393E46"/>
</svg>
