<svg width="272" height="701" viewBox="0 0 272 701" fill="none" xmlns="http://www.w3.org/2000/svg">
<path d="M141.099 175.161L110.239 173.373L112.87 142.855L141.574 144.515L141.099 175.161Z" fill="#FF8E6E"/>
<path d="M141.099 175.161L110.239 173.373L112.87 142.855L141.574 144.515L141.099 175.161Z" fill="black"/>
<path d="M142.047 143.359L141.501 166.121C136.47 167.51 131.042 167.754 125.615 166.535C119.904 165.276 114.894 162.573 110.842 158.891L112.444 141.651L142.047 143.359Z" fill="#CE6042"/>
<path d="M86.6103 121.443C90.8247 127.624 98.667 129.636 104.127 125.939C109.587 122.241 110.598 114.232 106.385 108.052C102.171 101.873 94.3284 99.859 88.8682 103.557C83.4079 107.256 82.3978 115.264 86.6103 121.443Z" fill="#FF8E6E"/>
<path d="M91.1352 108.249C91.1352 108.249 101.871 108.871 101.531 120.041L91.1352 108.249Z" fill="#CE6042"/>
<path d="M176.145 135.472C170.232 140.065 162.149 139.583 158.09 134.394C154.031 129.205 155.534 121.274 161.447 116.68C167.36 112.087 175.444 112.569 179.503 117.758C183.562 122.947 182.059 130.878 176.145 135.472Z" fill="#FF8E6E"/>
<path d="M175.903 121.529C175.903 121.529 165.492 118.839 162.377 129.572L175.903 121.529Z" fill="#CE6042"/>
<path d="M126.194 161.322C108.937 158.618 97.0372 142.334 99.75 125.136L103.948 98.5153C106.661 81.3153 122.999 69.4553 140.255 72.159C157.512 74.8628 169.412 91.147 166.699 108.347L162.501 134.967C159.79 152.165 143.452 164.025 126.194 161.322Z" fill="#FF8E6E"/>
<path d="M120.243 117.052C119.189 116.886 118.462 115.892 118.628 114.841L119.709 107.979C119.876 106.929 120.873 106.204 121.927 106.37C122.981 106.535 123.708 107.529 123.542 108.58L122.46 115.442C122.294 116.493 121.297 117.216 120.243 117.052Z" fill="#601222"/>
<path d="M145.488 121.006C144.434 120.841 143.707 119.847 143.873 118.796L144.955 111.934C145.121 110.883 146.119 110.159 147.173 110.324C148.227 110.49 148.954 111.484 148.787 112.535L147.706 119.397C147.54 120.447 146.542 121.172 145.488 121.006Z" fill="#601222"/>
<path d="M137.069 115.418C137.069 115.418 134.884 122.035 138.505 125.833L134.287 128.897" stroke="#CE6042" stroke-miterlimit="10" stroke-linecap="round" stroke-linejoin="round"/>
<path d="M141.583 136.193C140.615 142.328 134.839 146.522 128.682 145.558C122.524 144.593 118.319 138.836 119.286 132.701L141.583 136.193Z" fill="#FFEBDB"/>
<path d="M172.399 74.8483C170.287 72.4213 162.302 75.1869 157.905 76.1245C159.767 72.8309 161.058 67.2123 157.206 65.6647C148.812 62.2946 116.554 71.7749 111.001 75.8332C103.522 81.2989 102.105 110.208 102.105 110.208C102.105 110.208 111.355 105.032 111.719 102.53C112.082 100.028 110.406 95.4093 110.595 93.0242C111.081 86.8848 118.558 78.5643 128.301 81.5447C131.686 82.5807 138.331 87.553 138.331 87.553C138.331 87.553 146.271 85.1042 149.807 85.2662C159.988 85.7341 164.213 96.0793 162.595 102.024C161.964 104.332 158.824 108.119 158.322 110.596C157.817 113.072 164.71 120.981 164.71 120.981C164.71 120.981 165.569 118.841 166.458 115.448C169.854 104.3 176.67 79.7532 172.399 74.8483Z" fill="#174566"/>
<path d="M90.7071 654.621V693.618H25.6832C25.8092 693.113 26.0157 692.642 26.2988 692.201C29.4098 687.227 32.93 682.539 35.5989 677.33C37.2247 674.167 42.073 664.676 42.073 664.676L45.4525 654.621H90.7071Z" fill="#174566"/>
<path d="M90.7075 693.618V696.057C90.7075 698.576 88.6707 700.606 86.1607 700.606H30.9885C27.6894 700.606 25.7311 698.151 25.5101 695.553C25.4626 694.909 25.5101 694.248 25.6836 693.618H90.7075Z" fill="#FFEBDB"/>
<path d="M45.4514 654.621V611.057L95.8739 613.615L90.7078 654.621H45.4514Z" fill="#FF8E6E"/>
<path d="M158.926 654.621V693.461H271.999C271.983 690.849 270.562 688.221 267.436 687.056L232.981 674.89L204.181 654.652L158.926 654.621Z" fill="#174566"/>
<path d="M158.926 693.461V700.606H265.005C269.204 700.606 271.716 697.458 271.968 694.153C271.985 693.916 271.999 693.696 271.999 693.461H158.926Z" fill="#FFEBDB"/>
<path d="M158.92 654.621L151.436 611.057L202.295 613.615L204.181 654.652L158.92 654.621Z" fill="#FF8E6E"/>
<path d="M209.215 626.394L146.1 632.639L116.835 337.342L100.066 633.604L36.7679 630.017L53.702 329.531L54.8529 309.668C72.4447 314.037 121.749 324.725 179.439 323.705L179.347 325.162L209.215 626.394Z" fill="#8DB5EB"/>
<path d="M218.81 378.26C219.236 380.041 219.522 381.323 219.522 381.323C219.813 382.735 220.73 388.259 225.708 386.599C228.888 385.548 230.962 382.502 230.255 379.227L228.344 369.86C228.198 369.206 227.562 366.364 228.806 365.772C230.763 364.809 233.475 374.923 234.447 378.559C235.538 382.486 239.522 397.565 239.522 397.565C240.143 400.462 242.806 403.722 246.913 402.785L246.919 402.81C247.032 403.313 248.999 409.403 254.708 408.391C257.941 407.817 259.81 404.327 259.196 401.112C259.196 401.112 256.568 376.698 256.014 374.346C253.875 365.264 243.957 342.14 243.957 342.14L216.148 355.232C214.513 358.396 215.182 361.938 214.831 365.818C214.612 368.135 218.024 374.872 218.81 378.26Z" fill="#FF8E6E"/>
<path d="M242.678 366.469L248.595 383.269L248.602 383.298L250.444 393.782L250.897 396.409C251.028 397.317 250.897 398.237 250.605 399.091C250.02 400.815 248.628 402.202 246.967 402.896C246.918 402.916 246.861 402.894 246.841 402.845C246.823 402.803 246.838 402.756 246.874 402.73L246.889 402.719C248.35 401.667 249.353 400.267 249.582 398.743C249.733 398.011 249.715 397.223 249.534 396.62L248.867 394.071C248.456 392.34 248.036 390.61 247.694 388.866C247.358 387.12 246.989 385.381 246.728 383.622L246.798 383.89C245.857 381.075 244.991 378.233 244.266 375.343C243.878 373.907 243.559 372.447 243.255 370.981C242.998 369.499 242.662 368.046 242.494 366.533L242.492 366.511C242.486 366.459 242.525 366.411 242.576 366.406C242.623 366.4 242.665 366.428 242.678 366.469Z" fill="#CE6042"/>
<path d="M2.94932 19.1043C5.54151 17.879 8.64521 18.9659 9.87645 21.5331L18.0056 38.4764C18.2705 38.2633 18.5445 38.0867 18.8057 37.8883L10.5268 10.7983C9.69378 8.06727 11.2429 5.16874 13.983 4.3385C16.7396 3.51373 19.6314 5.05222 20.4644 7.78325L28.5479 34.205C28.6319 34.1941 28.7013 34.1777 28.7872 34.165L29.4539 34.1158L27.313 5.56019C27.0974 2.7181 29.2493 0.229216 32.0991 0.0143748C34.9653 -0.196825 37.4479 1.94431 37.6635 4.78458L39.8629 33.9738C40.1899 34.0375 40.5078 34.083 40.8348 34.1468L42.5866 15.35C42.8479 12.4952 45.3761 10.4069 48.224 10.6636C51.103 10.9276 53.1801 13.4583 52.9225 16.2986L50.7267 39.8801C50.8692 40.0294 51.0062 40.2097 51.1487 40.359C54.2506 34.7421 57.5113 30.9424 57.7379 30.6875C59.6139 28.5209 62.8912 28.2969 65.065 30.1649C67.2188 32.0457 67.4636 35.3011 65.5729 37.4641C63.494 39.8583 58.1818 49.1693 55.8179 57.2932C53.2623 66.0743 46.6987 72.0298 37.9375 72.7235L31.8653 73.1932C21.0855 74.0435 11.5954 65.9487 10.7368 55.2212C10.5615 52.9454 10.8099 50.7387 11.3762 48.6431L0.510599 26.0065C-0.731605 23.4211 0.373576 20.3314 2.94932 19.1043Z" fill="#FF8E6E"/>
<path d="M32.5447 59.3962C31.9053 57.4244 31.7135 55.2268 32.247 53.0802C32.4753 51.9988 32.9229 50.9664 33.4289 49.9505C34.0555 49.0238 34.6327 48.0096 35.4804 47.2486C35.8676 46.828 36.2896 46.4548 36.7372 46.1143C37.1792 45.7666 37.6012 45.3824 38.0963 45.1239C39.0517 44.5412 40.0528 44.0715 41.0666 43.6655C43.1619 42.9481 45.2097 42.5858 47.4968 42.7133L46.2985 43.3578C46.9963 42.7588 47.6795 42.1489 48.4358 41.5935C49.1629 41.0182 49.9593 40.492 50.7942 39.9986L50.838 39.9731C50.9001 39.9349 50.9823 39.9568 51.0189 40.0187C51.0463 40.066 51.0426 40.1242 51.0116 40.1643L47.7672 44.4757C47.7362 44.5176 47.6905 44.5412 47.643 44.5485L47.6302 44.5503C43.8287 45.0201 40.1075 46.5859 37.2925 49.153C36.5618 49.7739 35.9937 50.544 35.3927 51.2869C34.9141 52.1098 34.3587 52.8982 34.0463 53.8085C33.2444 55.5582 32.9959 57.4918 32.8206 59.4035C32.8133 59.4763 32.7475 59.5309 32.6744 59.5237C32.6196 59.5182 32.5758 59.4818 32.5593 59.4326L32.5447 59.3962Z" fill="#CE6042"/>
<path d="M185.25 224.022L179.495 322.594L179.441 323.705C121.751 324.724 72.4466 314.037 54.8548 309.667L54.9279 308.63L60.2621 216.794C61.76 191.305 83.6813 171.841 109.256 173.316L141.626 175.192C167.199 176.666 186.728 198.533 185.25 224.022Z" fill="#FFEBDB"/>
<path d="M185.25 224.022L179.495 322.594L179.441 323.705C121.751 324.724 72.4466 314.037 54.8548 309.667L54.9279 308.63L60.2621 216.794C61.76 191.305 83.6813 171.841 109.256 173.316L141.626 175.192C167.199 176.666 186.728 198.533 185.25 224.022Z" fill="black"/>
<path d="M151.398 172.442C149.827 186.552 137.953 196.421 123.521 194.946C108.049 193.344 95.5169 179.27 95.5351 163.503L151.398 172.442Z" fill="#FF8E6E"/>
<path d="M58.3057 217.015V217.013C58.0097 216.814 58.1559 216.913 58.3057 217.015Z" fill="#174566"/>
<path d="M89.2331 166.325H88.5024C84.1912 163.011 77.9436 158.205 77.9436 158.205C73.3037 154.691 68.7367 151.031 65.5764 148.318L62.2882 145.405C62.1604 145.059 62.0325 144.731 61.9046 144.331C60.4797 140.07 59.2375 134.135 58.178 128.163C57.0637 122.155 56.1138 115.819 55.109 109.41C53.1544 96.6289 51.2911 81.6447 48.6423 68.5175L19.2861 69.8466C15.2489 82.5914 12.5635 96.1373 10.6272 109.283C9.60416 116.329 8.87346 123.448 8.48983 130.858C8.17928 138.323 8.08795 145.824 9.23882 154.763C9.54937 157.003 9.9878 159.424 10.5906 162.028C16.8017 186.553 38.1018 203.631 58.3059 217.013C58.6219 217.226 58.4612 217.118 58.3059 217.015L54.3126 260.081C54.3126 260.081 49.2323 272.178 47.0164 276.942C43.1948 285.161 51.3368 290.758 51.3368 290.758L51.2326 294.206L99.5379 300.728C104.872 257.96 110.239 173.373 110.239 173.373C103.955 167.383 94.8432 166.325 89.2331 166.325Z" fill="#33658A"/>
<path d="M98.4378 308.795C96.9216 309.948 83.398 308.245 71.9697 306.345C61.3927 304.586 50.2239 302.8 48.6492 300.728C47.6134 299.366 48.5761 291.876 50.0485 290.923C51.3162 290.102 60.5743 292.382 74.9766 294.215C92.9538 296.502 100.42 296.467 100.771 298.21C101.255 300.63 100.235 307.428 98.4378 308.795Z" fill="#174566"/>
<path d="M111.069 163.743C111.069 163.743 99.7794 163.517 96.135 167.405C92.5527 171.226 94.5822 183.328 96.135 188.323C100.362 201.925 107.605 209.759 107.605 209.759L110.238 173.373L111.069 163.743Z" fill="#174566"/>
<path d="M14.9583 79.2104C13.9098 78.3165 13.4732 70.1708 15.3292 68.1625C16.3467 67.061 19.3937 68.4739 34.1997 68.0515C44.1008 67.7693 51.2033 66.2417 51.8408 66.6368C53.4594 67.6382 53.178 75.0921 51.6399 77.3515C49.8424 79.9879 18.3579 82.1053 14.9583 79.2104Z" fill="#174566"/>
<path d="M243.96 342.131L216.157 355.24C210.658 344.006 203.68 330.788 199.022 319.354C196.629 313.655 194.455 307.902 192.171 302.203C188.956 293.791 186.647 287.302 182.902 279.237L182.767 284.668C182.767 284.668 186.93 295.15 187.347 299.053C187.959 304.807 182.259 305.251 182.259 305.251L182.179 308.495C163.265 307.523 138.55 304.022 138.55 304.022L141.099 175.163C141.391 175.181 142.246 175.252 144.074 175.394C168.809 177.706 199.974 190.36 207.463 206.054C212.834 217.343 214.716 220.984 219.593 232.527C222.096 238.28 224.343 244.125 226.736 250.188C231.631 262.659 234.518 276.133 236.947 289.405C238.078 295.539 242.828 329.641 243.96 342.131Z" fill="#33658A"/>
<path d="M141.242 165.974C141.242 165.974 152.867 170.239 154.913 173.236C157.766 177.415 155.328 186.828 153.329 191.663C147.889 204.831 140.414 209.757 140.414 209.757L141.097 175.159L141.242 165.974Z" fill="#174566"/>
<path d="M214.207 355.636C211.554 354.952 208.514 348.319 209.501 345.772C210.042 344.375 218.45 341.941 226.526 338.36C234.92 334.638 242.856 329.418 243.55 329.702C246.086 330.738 246.772 337.963 246.173 340.627C245.474 343.736 216.614 356.259 214.207 355.636Z" fill="#174566"/>
<path d="M182.766 279.228L184.006 252.797L185.519 226.38C185.522 226.306 185.588 226.249 185.661 226.253C185.727 226.256 185.778 226.306 185.787 226.368L185.791 226.395C186.465 230.845 186.843 235.282 186.918 239.7C187.02 241.914 186.947 244.117 186.962 246.326L186.741 252.939C186.465 257.339 186.136 261.738 185.535 266.124C185 270.512 184.167 274.885 183.038 279.242L183.031 279.268C183.012 279.34 182.938 279.384 182.866 279.364C182.804 279.349 182.764 279.291 182.766 279.228Z" fill="#174566"/>
<path d="M188.728 279.92C189.203 278.627 189.787 277.389 190.401 276.162C191.011 274.933 191.643 273.704 192.4 272.549C193.14 271.382 193.911 270.23 194.769 269.114C195.624 267.996 196.543 266.894 197.714 265.958C198.298 265.487 198.912 265.026 199.65 264.649C200.386 264.243 201.302 264.021 202.052 263.901C203.625 263.668 205.125 263.766 206.572 263.965C209.478 264.404 212.083 265.412 214.71 266.596C215.461 266.933 215.795 267.814 215.457 268.562C215.245 269.032 214.809 269.34 214.336 269.42C212.534 269.709 210.668 270.157 208.846 270.596C207.005 271.009 205.178 271.492 203.379 272.065C201.587 272.655 199.829 273.334 198.072 274.046C196.338 274.805 194.674 275.708 193.046 276.746L193.034 276.753C192.992 276.781 192.935 276.768 192.908 276.726C192.882 276.688 192.891 276.637 192.926 276.608C195.876 274.102 199.373 272.362 202.953 270.962C206.554 269.591 210.266 268.527 214.054 267.792L214.014 268.091C211.542 267.016 208.939 266.184 206.285 265.727C204.959 265.511 203.603 265.4 202.277 265.569C200.934 265.687 199.751 266.363 198.699 267.197C196.596 268.879 194.888 271.018 193.282 273.187C191.693 275.375 190.226 277.658 188.887 280.009C188.863 280.052 188.807 280.067 188.763 280.043C188.722 280.021 188.708 279.974 188.722 279.934L188.728 279.92Z" fill="#174566"/>
<path d="M183.456 316.876C182.548 317.688 169.777 317.282 158.007 316.222C146.959 315.226 136.625 313.695 136.19 311.852C135.562 309.198 136.354 301.769 137.493 301.059C138.773 300.26 146.422 301.667 161.838 303.149C179.877 304.885 183.986 304.832 184.55 306.519C185.073 308.087 184.906 315.579 183.456 316.876Z" fill="#174566"/>
</svg>
