<svg width="87" height="72" viewBox="0 0 87 72" fill="none" xmlns="http://www.w3.org/2000/svg">
<path d="M84.825 49.5H82.65V34.2984C82.65 32.5125 81.9567 30.7969 80.7333 29.5312L67.1531 15.4828C65.9297 14.2172 64.2712 13.5 62.5448 13.5H56.55V6.75C56.55 3.02344 53.6273 0 50.025 0H6.525C2.92266 0 0 3.02344 0 6.75V51.75C0 55.4766 2.92266 58.5 6.525 58.5H8.7C8.7 65.9531 14.5453 72 21.75 72C28.9547 72 34.8 65.9531 34.8 58.5H52.2C52.2 65.9531 58.0453 72 65.25 72C72.4547 72 78.3 65.9531 78.3 58.5H84.825C86.0212 58.5 87 57.4875 87 56.25V51.75C87 50.5125 86.0212 49.5 84.825 49.5ZM21.75 65.25C18.1477 65.25 15.225 62.2266 15.225 58.5C15.225 54.7734 18.1477 51.75 21.75 51.75C25.3523 51.75 28.275 54.7734 28.275 58.5C28.275 62.2266 25.3523 65.25 21.75 65.25ZM65.25 65.25C61.6477 65.25 58.725 62.2266 58.725 58.5C58.725 54.7734 61.6477 51.75 65.25 51.75C68.8523 51.75 71.775 54.7734 71.775 58.5C71.775 62.2266 68.8523 65.25 65.25 65.25ZM76.125 36H56.55V20.25H62.5448L76.125 34.2984V36Z" fill="#393E46"/>
</svg>
